<svg xmlns="http://www.w3.org/2000/svg" width="1200" height="620" viewBox="0 0 1200 620">
  <defs>
    <linearGradient id="bg" x1="0" y1="0" x2="1" y2="1">
      <stop offset="0" stop-color="#020617"/>
      <stop offset="0.55" stop-color="#0f172a"/>
      <stop offset="1" stop-color="#111827"/>
    </linearGradient>
    <filter id="glow"><feGaussianBlur stdDeviation="8" result="blur"/><feMerge><feMergeNode in="blur"/><feMergeNode in="SourceGraphic"/></feMerge></filter>
  </defs>
  <rect width="1200" height="620" rx="34" fill="url(#bg)"/>
  <circle cx="1040" cy="90" r="210" fill="#8b5cf6" opacity="0.12"/>
  <circle cx="130" cy="520" r="180" fill="#8b5cf6" opacity="0.10"/>
  <text x="70" y="105" fill="#f8fafc" font-family="Segoe UI, Arial, sans-serif" font-size="54" font-weight="800">Explorer</text>
  <text x="72" y="155" fill="#8b5cf6" font-family="Segoe UI, Arial, sans-serif" font-size="28" font-weight="700">Blockchain Analytics UI</text>
  <g transform="translate(90 250)" font-family="Segoe UI, Arial, sans-serif" font-size="25" font-weight="700">
    <rect x="0" y="0" width="180" height="90" rx="18" fill="#111827" stroke="#8b5cf6" stroke-width="3"/>
    <rect x="235" y="0" width="180" height="90" rx="18" fill="#111827" stroke="#8b5cf6" stroke-width="3"/>
    <rect x="470" y="0" width="180" height="90" rx="18" fill="#111827" stroke="#8b5cf6" stroke-width="3"/>
    <rect x="705" y="0" width="180" height="90" rx="18" fill="#111827" stroke="#8b5cf6" stroke-width="3"/>
    <rect x="940" y="0" width="180" height="90" rx="18" fill="#111827" stroke="#8b5cf6" stroke-width="3"/>
    <text x="90" y="56" text-anchor="middle" fill="#e5e7eb">Search</text>
    <text x="325" y="56" text-anchor="middle" fill="#e5e7eb">Transactions</text>
    <text x="560" y="56" text-anchor="middle" fill="#e5e7eb">Charts</text>
    <text x="795" y="56" text-anchor="middle" fill="#e5e7eb">Sankey</text>
    <text x="1030" y="56" text-anchor="middle" fill="#e5e7eb">Filters</text>
    <path d="M180 45 H235 M415 45 H470 M650 45 H705 M885 45 H940" stroke="#8b5cf6" stroke-width="4" stroke-linecap="round" filter="url(#glow)"/>
  </g>
  <text x="70" y="520" fill="#94a3b8" font-family="Segoe UI, Arial, sans-serif" font-size="25">Architecture concept visual for portfolio review and system-design discussion.</text>
</svg>
